<svg width="1004" height="755" viewBox="0 0 1004 755" fill="none" xmlns="http://www.w3.org/2000/svg">
<path d="M451 0V422.5C451 432 444.522 441 432.561 441C413.824 441 271.764 441 177.91 441C161.963 441 151 454.4 151 468C151 481.6 151 525.833 151 553" stroke="url(#paint0_linear)" stroke-width="4" stroke-linecap="round" stroke-linejoin="round"/>
<path d="M551 3V422.5C551 432 557.5 441 569.5 441C588.3 441 729.833 441 824 441C840 441 851 454.4 851 468C851 481.6 851 525.833 851 553" stroke="url(#paint1_linear)" stroke-width="4" stroke-linecap="round" stroke-linejoin="round"/>
<path d="M501 12L501 553" stroke="url(#paint2_linear)" stroke-width="4" stroke-linecap="round" stroke-linejoin="round"/>
<g filter="url(#filter0_d)">
<rect x="12" y="553" width="280" height="190" rx="4" fill="white"/>
</g>
<text fill="#338B93" xml:space="preserve" style="white-space: pre" font-family="Ubuntu" font-size="26" font-weight="bold" letter-spacing="0em"><tspan x="97" y="619.232">Selenoid</tspan></text>
<rect x="62" y="637" width="180" height="2" rx="1" fill="#282828" fill-opacity="0.15"/>
<text fill="#282828" xml:space="preserve" style="white-space: pre" font-family="Ubuntu" font-size="18" font-weight="300" letter-spacing="0em"><tspan x="63.6699" y="669.844">Your company is using </tspan><tspan x="62.9053" y="694.663">cloud virtual machines</tspan></text>
<g filter="url(#filter1_d)">
<rect x="712" y="553" width="280" height="190" rx="4" fill="white"/>
</g>
<rect x="762" y="637" width="180" height="2" rx="1" fill="#282828" fill-opacity="0.15"/>
<text fill="#6739B4" xml:space="preserve" style="white-space: pre" font-family="Ubuntu" font-size="26" font-weight="bold" letter-spacing="0em"><tspan x="794.274" y="619.232">Browsers</tspan></text>
<text fill="#282828" xml:space="preserve" style="white-space: pre" font-family="Ubuntu" font-size="18" font-weight="300" letter-spacing="0em"><tspan x="760.392" y="669.844">You need ready-to-use &#10;</tspan><tspan x="792.621" y="694.663">online solution</tspan></text>
<g filter="url(#filter2_d)">
<rect x="362" y="553" width="280" height="190" rx="4" fill="#264694"/>
</g>
<path d="M613.3 721.4C613 721 612.7 720.3 612.1 719.4C611.8 718.9 610.9 717.9 610.6 717.5C610.4 717.1 610.4 716.9 610.5 716.5C610.6 715.9 611.2 715.4 611.9 715.4C612.4 715.4 612.9 715.8 613.3 716.1C613.5 716.3 613.8 716.7 614 716.9C614.2 717.1 614.2 717.2 614.4 717.4C614.6 717.7 614.7 717.9 614.6 717.5C614.5 717 614.4 716.2 614.2 715.4C614.1 714.8 614 714.7 613.9 714.3C613.8 713.8 613.7 713.5 613.6 713C613.5 712.7 613.4 711.9 613.3 711.5C613.2 711 613.2 710.1 613.6 709.7C613.9 709.4 614.5 709.3 614.9 709.5C615.4 709.8 615.7 710.5 615.8 710.8C616 711.3 616.2 712 616.3 712.8C616.5 713.8 616.8 715.3 616.8 715.6C616.8 715.2 616.7 714.5 616.8 714.1C616.9 713.8 617.1 713.4 617.5 713.3C617.8 713.2 618.1 713.2 618.4 713.2C618.7 713.3 619 713.5 619.2 713.7C619.6 714.3 619.6 715.6 619.6 715.5C619.7 715.1 619.7 714.3 619.9 713.9C620 713.7 620.4 713.5 620.6 713.4C620.9 713.3 621.3 713.3 621.6 713.4C621.8 713.4 622.2 713.7 622.3 713.9C622.5 714.2 622.6 715.2 622.7 715.6C622.7 715.7 622.8 715.2 623 714.9C623.4 714.3 624.8 714.1 624.9 715.5C624.9 716.2 624.9 716.1 624.9 716.6C624.9 717.1 624.9 717.4 624.9 717.8C624.9 718.2 624.8 719.1 624.7 719.5C624.6 719.8 624.3 720.5 624 720.9C624 720.9 622.9 722.1 622.8 722.7C622.7 723.3 622.7 723.3 622.7 723.7C622.7 724.1 622.8 724.6 622.8 724.6C622.8 724.6 622 724.7 621.6 724.6C621.2 724.5 620.7 723.8 620.6 723.5C620.4 723.2 620.1 723.2 619.9 723.5C619.7 723.9 619.2 724.6 618.8 724.6C618.1 724.7 616.7 724.6 615.7 724.6C615.7 724.6 615.9 723.6 615.5 723.2C615.2 722.9 614.7 722.4 614.4 722.1L613.3 721.4Z" fill="white"/>
<path d="M613.3 721.4C613 721 612.7 720.3 612.1 719.4C611.8 718.9 610.9 717.9 610.6 717.5C610.4 717.1 610.4 716.9 610.5 716.5C610.6 715.9 611.2 715.4 611.9 715.4C612.4 715.4 612.9 715.8 613.3 716.1C613.5 716.3 613.8 716.7 614 716.9C614.2 717.1 614.2 717.2 614.4 717.4C614.6 717.7 614.7 717.9 614.6 717.5C614.5 717 614.4 716.2 614.2 715.4C614.1 714.8 614 714.7 613.9 714.3C613.8 713.8 613.7 713.5 613.6 713C613.5 712.7 613.4 711.9 613.3 711.5C613.2 711 613.2 710.1 613.6 709.7C613.9 709.4 614.5 709.3 614.9 709.5C615.4 709.8 615.7 710.5 615.8 710.8C616 711.3 616.2 712 616.3 712.8C616.5 713.8 616.8 715.3 616.8 715.6C616.8 715.2 616.7 714.5 616.8 714.1C616.9 713.8 617.1 713.4 617.5 713.3C617.8 713.2 618.1 713.2 618.4 713.2C618.7 713.3 619 713.5 619.2 713.7C619.6 714.3 619.6 715.6 619.6 715.5C619.7 715.1 619.7 714.3 619.9 713.9C620 713.7 620.4 713.5 620.6 713.4C620.9 713.3 621.3 713.3 621.6 713.4C621.8 713.4 622.2 713.7 622.3 713.9C622.5 714.2 622.6 715.2 622.7 715.6C622.7 715.7 622.8 715.2 623 714.9C623.4 714.3 624.8 714.1 624.9 715.5C624.9 716.2 624.9 716.1 624.9 716.6C624.9 717.1 624.9 717.4 624.9 717.8C624.9 718.2 624.8 719.1 624.7 719.5C624.6 719.8 624.3 720.5 624 720.9C624 720.9 622.9 722.1 622.8 722.7C622.7 723.3 622.7 723.3 622.7 723.7C622.7 724.1 622.8 724.6 622.8 724.6C622.8 724.6 622 724.7 621.6 724.6C621.2 724.5 620.7 723.8 620.6 723.5C620.4 723.2 620.1 723.2 619.9 723.5C619.7 723.9 619.2 724.6 618.8 724.6C618.1 724.7 616.7 724.6 615.7 724.6C615.7 724.6 615.9 723.6 615.5 723.2C615.2 722.9 614.7 722.4 614.4 722.1L613.3 721.4Z" stroke="black" stroke-width="0.75" stroke-linecap="round" stroke-linejoin="round"/>
<path d="M621.6 721.7V718.3" stroke="black" stroke-width="0.75" stroke-linecap="round"/>
<path d="M619.6 721.7L619.5 718.3" stroke="black" stroke-width="0.75" stroke-linecap="round"/>
<path d="M617.6 718.3V721.7" stroke="black" stroke-width="0.75" stroke-linecap="round"/>
<text fill="white" xml:space="preserve" style="white-space: pre" font-family="Ubuntu" font-size="26" font-weight="bold" letter-spacing="0em"><tspan x="467.385" y="619.232">Moon</tspan></text>
<rect x="412" y="637" width="180" height="2" rx="1" fill="white" fill-opacity="0.15"/>
<text fill="white" xml:space="preserve" style="white-space: pre" font-family="Ubuntu" font-size="18" font-weight="300" letter-spacing="0em"><tspan x="411.622" y="669.844">Your company is using &#10;</tspan><tspan x="402.684" y="694.663">Kubernetes or Openshift</tspan></text>
<defs>
<filter id="filter0_d" x="0" y="541" width="304" height="214" filterUnits="userSpaceOnUse" color-interpolation-filters="sRGB">
<feFlood flood-opacity="0" result="BackgroundImageFix"/>
<feColorMatrix in="SourceAlpha" type="matrix" values="0 0 0 0 0 0 0 0 0 0 0 0 0 0 0 0 0 0 127 0"/>
<feOffset/>
<feGaussianBlur stdDeviation="6"/>
<feColorMatrix type="matrix" values="0 0 0 0 0.2 0 0 0 0 0.545098 0 0 0 0 0.576471 0 0 0 0.35 0"/>
<feBlend mode="normal" in2="BackgroundImageFix" result="effect1_dropShadow"/>
<feBlend mode="normal" in="SourceGraphic" in2="effect1_dropShadow" result="shape"/>
</filter>
<filter id="filter1_d" x="700" y="541" width="304" height="214" filterUnits="userSpaceOnUse" color-interpolation-filters="sRGB">
<feFlood flood-opacity="0" result="BackgroundImageFix"/>
<feColorMatrix in="SourceAlpha" type="matrix" values="0 0 0 0 0 0 0 0 0 0 0 0 0 0 0 0 0 0 127 0"/>
<feOffset/>
<feGaussianBlur stdDeviation="6"/>
<feColorMatrix type="matrix" values="0 0 0 0 0.403922 0 0 0 0 0.223529 0 0 0 0 0.705882 0 0 0 0.35 0"/>
<feBlend mode="normal" in2="BackgroundImageFix" result="effect1_dropShadow"/>
<feBlend mode="normal" in="SourceGraphic" in2="effect1_dropShadow" result="shape"/>
</filter>
<filter id="filter2_d" x="350" y="541" width="304" height="214" filterUnits="userSpaceOnUse" color-interpolation-filters="sRGB">
<feFlood flood-opacity="0" result="BackgroundImageFix"/>
<feColorMatrix in="SourceAlpha" type="matrix" values="0 0 0 0 0 0 0 0 0 0 0 0 0 0 0 0 0 0 127 0"/>
<feOffset/>
<feGaussianBlur stdDeviation="6"/>
<feColorMatrix type="matrix" values="0 0 0 0 0.14902 0 0 0 0 0.27451 0 0 0 0 0.580392 0 0 0 0.35 0"/>
<feBlend mode="normal" in2="BackgroundImageFix" result="effect1_dropShadow"/>
<feBlend mode="normal" in="SourceGraphic" in2="effect1_dropShadow" result="shape"/>
</filter>
<linearGradient id="paint0_linear" x1="450.502" y1="363.5" x2="419.42" y2="454.937" gradientUnits="userSpaceOnUse">
<stop stop-color="#B6F492" stop-opacity="0"/>
<stop offset="1" stop-color="#338B93"/>
</linearGradient>
<linearGradient id="paint1_linear" x1="556.5" y1="372" x2="572" y2="453.5" gradientUnits="userSpaceOnUse">
<stop stop-color="#6739B4" stop-opacity="0"/>
<stop offset="1" stop-color="#6739B4"/>
</linearGradient>
<linearGradient id="paint2_linear" x1="531" y1="373" x2="531" y2="476.5" gradientUnits="userSpaceOnUse">
<stop stop-color="#213976" stop-opacity="0"/>
<stop offset="1" stop-color="#264694"/>
</linearGradient>
</defs>
</svg>
